<?xml version="1.0" encoding="UTF-8"?>
<svg xmlns="http://www.w3.org/2000/svg" xmlns:xlink="http://www.w3.org/1999/xlink" version="1.1" viewBox="0 0 1920 1080">
  <!-- Generator: Adobe Illustrator 29.0.0, SVG Export Plug-In . SVG Version: 2.1.0 Build 186)  -->
  <defs>
    <style>
      .st0 {
        fill: url(#radial-gradient1);
        opacity: .5;
      }

      .st0, .st1 {
        mix-blend-mode: overlay;
      }

      .st2 {
        fill: #88bf41;
      }

      .st3 {
        fill: url(#radial-gradient);
      }

      .st4 {
        fill: url(#linear-gradient);
      }

      .st5 {
        isolation: isolate;
      }

      .st6 {
        fill: #fff;
      }
    </style>
    <radialGradient id="radial-gradient" cx="602.3" cy="72.81" fx="602.3" fy="72.81" r="1877.39" gradientUnits="userSpaceOnUse">
      <stop offset="0" stop-color="#fff"/>
      <stop offset=".5" stop-color="#4db6ac"/>
      <stop offset="1" stop-color="#4db6ac"/>
    </radialGradient>
    <radialGradient id="radial-gradient1" cx="993.19" cy="701.25" fx="993.19" fy="701.25" r="646.34" gradientTransform="translate(0 627.66) scale(1 .1)" gradientUnits="userSpaceOnUse">
      <stop offset="0" stop-color="#fff"/>
      <stop offset="1" stop-color="#fff" stop-opacity="0"/>
    </radialGradient>
    <linearGradient id="linear-gradient" x1="995.23" y1="705.45" x2="995.23" y2="500.63" gradientUnits="userSpaceOnUse">
      <stop offset="0" stop-color="#fff"/>
      <stop offset=".14" stop-color="#231f20"/>
      <stop offset=".24" stop-color="#fff"/>
      <stop offset=".36" stop-color="#231f20"/>
      <stop offset=".52" stop-color="#fff"/>
      <stop offset=".68" stop-color="#231f20"/>
      <stop offset=".83" stop-color="#fff"/>
      <stop offset="1" stop-color="#231f20"/>
    </linearGradient>
  </defs>
  <g class="st5">
    <g id="Layer_1">
      <g>
        <g>
          <g>
            <path class="st2" d="M203.94,843.42v-24.4c0-.36.18-.55.55-.55h23.27c4.63,0,6.74,2,6.74,6.48v.69c0,2.33-.62,3.97-2.37,4.84v.44c2.19.84,3.28,2.44,3.28,4.88v1.35c0,4.59-2.44,6.81-7.54,6.81h-23.38c-.36,0-.55-.18-.55-.55ZM208.31,822.37v6.77h18.94c1.86,0,2.95-.55,2.95-3.02v-.73c0-2.62-1.09-3.02-2.95-3.02h-18.94ZM208.31,832.68v7.39h19.27c2.37,0,3.57-.62,3.57-3.06v-1.17c0-2.44-1.2-3.17-3.57-3.17h-19.27Z"/>
            <path class="st2" d="M255.22,843.42v-9.32l-13.99-15.01c-.33-.36-.11-.62.25-.62h3.86c.44,0,.69.22,1.02.55l10.82,11.58h.33l10.82-11.58c.33-.33.58-.55,1.02-.55h3.86c.36,0,.62.25.25.62l-13.95,15.01v9.32c0,.36-.22.55-.58.55h-3.21c-.36,0-.51-.18-.51-.55Z"/>
          </g>
          <g>
            <g>
              <path class="st6" d="M237.02,407.77l-40.34-117.2h14.44c23.9,69.72,28.39,83,34.2,102.09,5.64-19.75,9.63-32.2,32.54-102.09h13.11c24.57,70.05,29.05,82.83,34.69,101.92,4.65-17.6,8.63-30.38,31.71-101.92h14.11l-39.01,117.2h-14.11c-24.4-70.88-29.22-85.16-33.86-100.93-4.48,15.6-8.8,29.22-33.03,100.93h-14.44Z"/>
              <path class="st6" d="M417.96,407.77v-117.2h93.13v11.45h-80.01v39.51h72.87v11.29h-72.87v43.49h84.83v11.45h-97.94Z"/>
              <path class="st6" d="M569.18,290.57h54.45c14.77,0,24.07.83,31.37,4.32,9.13,4.15,14.44,13.45,14.44,23.57,0,12.95-6.81,22.24-23.57,26.56,19.26,2.66,28.88,13.78,28.88,30.21,0,13.94-8.47,24.57-21.91,29.05-7.8,2.66-17.6,3.49-35.86,3.49h-47.81v-117.2ZM623.96,340.04c9.3,0,15.6-.83,20.25-2.66,7.8-2.99,11.79-9.3,11.79-17.26,0-6.64-3.15-12.45-9.79-15.6-4.81-2.32-12.12-2.99-22.41-2.99h-41.5v38.51h41.67ZM582.3,396.82h41.5c10.79,0,17.93-1,22.41-2.32,9.63-2.82,14.77-10.13,14.77-19.92,0-8.3-3.82-15.27-11.79-19.42-5.81-2.82-12.95-4.15-22.91-4.15h-43.99v45.82Z"/>
              <path class="st6" d="M728.04,407.77v-117.2h13.45v117.2h-13.45Z"/>
              <path class="st6" d="M801.25,407.77v-117.2h14.77c60.26,72.21,71.21,84.83,83,99.93-.5-14.77-.83-30.54-.83-99.93h13.28v117.2h-14.28c-60.42-72.38-68.72-82.5-83.17-100.43.17,12.28.33,25.9.33,100.43h-13.11Z"/>
              <path class="st6" d="M957.95,407.77l57.27-117.2h14.28l55.28,117.2h-14.44l-15.77-33.03h-66.23l-16.1,33.03h-14.28ZM1050.08,364.11c-17.93-37.85-23.24-49.47-28.22-61.09-5.15,12.12-10.13,22.74-29.22,61.09h57.44Z"/>
              <path class="st6" d="M1131.25,407.77v-117.2h49.47c14.77,0,26.89.5,36.02,3.98,10.13,3.98,18.43,13.28,18.43,28.05,0,11.95-5.15,22.41-16.27,27.89-6.14,2.99-14.61,4.81-23.57,5.48l44.65,51.79h-16.77l-42.5-50.63h-36.35v50.63h-13.11ZM1180.55,345.69c12.78,0,22.91-.66,29.71-3.82,7.8-3.65,11.12-9.96,11.12-18.76,0-7.47-2.82-14.11-11.12-17.93-7.47-3.32-18.76-3.32-29.55-3.32h-36.35v43.82h36.19Z"/>
            </g>
            <g>
              <path class="st6" d="M351.56,835.83c1.32-1.98,2.38-2.25,5.16-2.25h4.76v-14.27h-11.63c-5.68,0-7.93,1.19-10.97,6.34l-6.61,11.1c-.92,1.72-2.11,4.36-2.11,4.36h-.26s-1.19-2.64-2.12-4.36l-6.6-11.1c-3.04-5.15-5.42-6.34-10.97-6.34h-11.76v14.27h4.89c2.78,0,3.83.27,5.16,2.25l11.1,16.78-21.94,34.1h18.63l11.63-18.77c.92-1.45,1.98-3.57,1.98-3.57h.26s.92,2.25,1.85,3.57l11.76,18.77h18.63l-22.07-34.1,11.23-16.78Z"/>
              <path class="st6" d="M416.92,825.65l-11.49,33.7c-1.19,3.43-2.25,8.99-2.25,8.99h-.26s-1.05-5.55-2.38-8.99l-13.22-33.7c-1.72-4.62-4.1-6.34-8.86-6.34h-11.1v14.27h1.98c1.85,0,2.77.4,3.57,2.38l22.46,50.61-2.25,5.16c-2.38,5.81-6.47,8.59-11.1,8.59-5.55,0-9.65-4.62-9.65-4.62l-6.48,11.89s6.48,6.87,17.05,6.87,19.55-5.42,24.31-17.58l24.18-60.92c.8-1.98,1.85-2.38,3.83-2.38h1.98v-14.27h-11.37c-4.62,0-7.4,1.72-8.99,6.34Z"/>
              <path class="st6" d="M515.19,869.66v-26.3c0-17.84-8.59-25.64-23.52-25.64-13.61,0-20.88,8.33-23.79,14.01h-.26s.26-1.45.26-2.91v-1.98c0-4.76-2.9-7.53-8.85-7.53h-15.46v14.27h5.28c1.85,0,2.91.93,2.91,2.91v50.22h16.65v-30.92c0-3.17.39-6.21,1.32-8.99,2.38-8.06,9.12-13.74,18.11-13.74,8.46,0,10.57,5.55,10.57,13.74v30.92c0,6.34,2.64,8.99,8.98,8.99h15.99v-14.14h-5.29c-1.85,0-2.91-1.06-2.91-2.91Z"/>
              <path class="st6" d="M559.14,817.73c-20.22,0-34.23,14.54-34.23,35.28,0,19.16,13.88,35.29,36.21,35.29,16.78,0,27.09-10.18,27.09-10.18l-7-11.63s-8.06,7.53-18.9,7.53c-10.18,0-18.9-6.21-20.22-18.1h46.52s.4-4.23.4-6.21c0-17.84-10.58-31.98-29.87-31.98ZM542.62,844.29c1.85-8.46,7.92-13.61,16.52-13.61,6.87,0,12.42,5.55,12.68,13.61h-29.2Z"/>
              <path class="st6" d="M647.71,835.83c1.32-1.98,2.38-2.25,5.16-2.25h4.76v-14.27h-11.63c-5.68,0-7.93,1.19-10.97,6.34l-6.61,11.1c-.92,1.72-2.11,4.36-2.11,4.36h-.26s-1.19-2.64-2.12-4.36l-6.6-11.1c-3.04-5.15-5.42-6.34-10.97-6.34h-11.76v14.27h4.89c2.78,0,3.83.27,5.16,2.25l11.1,16.78-21.94,34.1h18.63l11.63-18.77c.93-1.45,1.98-3.57,1.98-3.57h.26s.92,2.25,1.85,3.57l11.76,18.77h18.63l-22.07-34.1,11.23-16.78Z"/>
              <path class="st6" d="M688.48,869.66v-41.36c0-6.21-2.65-8.98-8.85-8.98h-15.99v14.27h5.28c1.85,0,2.91.93,2.91,2.91v41.23c0,6.34,2.64,8.99,8.86,8.99h15.99v-14.14h-5.28c-1.85,0-2.91-1.06-2.91-2.91Z"/>
              <path class="st6" d="M719.59,836.75c0-3.96,4.1-6.08,10.04-6.08,3.7,0,8.46,1.59,8.46,4.76v3.3h14.8v-7c0-10.97-14.54-14.01-23.65-14.01-14.01,0-26.17,6.21-26.17,19.69,0,21.8,35.55,21.67,35.55,31.19,0,4.49-3.97,6.61-9.12,6.61-11.5,0-20.09-9.91-20.09-9.91l-7.93,10.97s9.52,12.03,28.02,12.03c14.67,0,25.9-7.93,25.9-20.62,0-22.47-35.81-20.35-35.81-30.92Z"/>
              <path class="st2" d="M713.92,773.9c5.14-7.91,11.58-9.17,11.58-9.17,0,0-2.49-2.34-12.88-.2-40.41,8.35-38.63,45.59-37.44,45.3l37.35-33.48c.47-.9.93-1.75,1.38-2.45Z"/>
              <path class="st2" d="M675.19,809.83c26.4-6.52,32.69-24.5,37.35-33.48l-37.35,33.48Z"/>
            </g>
          </g>
        </g>
        <path class="st3" d="M193.44,653.38c0-4.34,2.31-6.65,7.23-6.65h28.93c4.92,0,7.23,2.31,8.1,6.65,2.03,8.39,9.26,12.44,18.51,12.44h129.89c13.6,0,20.83-5.5,20.83-18.8,0-10.13-2.03-21.7-21.7-22.28l-129.89-6.94c-44.26-2.31-61.91-24.59-61.91-60.17,0-40.79,20.83-56.99,63.07-56.99h132.21c41.37,0,57.86,18.8,57.86,52.07,0,4.34-2.31,6.65-7.23,6.65h-28.93c-4.92,0-7.23-2.31-8.1-6.65-2.03-8.39-9.26-12.44-18.51-12.44h-125.26c-13.6,0-20.83,5.5-20.83,18.8,0,10.13,2.03,21.7,21.7,22.28l129.89,6.94c44.26,2.31,61.91,24.59,61.91,59.88,0,41.08-20.83,57.28-63.07,57.28h-136.84c-41.37,0-57.86-18.8-57.86-52.07ZM516.3,699.66v-193.25c0-2.89,1.74-4.63,4.63-4.63h227.1c2.89,0,4.34,1.45,4.34,4.34v30.95c0,2.89-1.45,4.34-4.34,4.34h-186.59v41.95h183.7c2.89,0,4.34,1.45,4.34,4.34v30.67c0,2.89-1.45,4.34-4.34,4.34h-183.7v41.95h188.04c2.89,0,4.34,1.45,4.34,4.34v30.95c0,2.89-1.45,4.34-4.34,4.34h-228.54c-2.89,0-4.63-1.74-4.63-4.63ZM817.45,699.66v-193.25c0-2.89,1.74-4.63,4.63-4.63h190.07c35.87,0,51.49,19.96,51.49,52.94v43.97c0,25.17-8.97,42.82-29.22,49.76l32.11,48.31c2.89,4.05-.58,7.52-5.5,7.52h-32.69c-3.76,0-5.79-1.74-8.1-4.92l-32.4-47.73h-125.26v48.02c0,2.89-1.45,4.63-4.34,4.63h-36.16c-2.89,0-4.63-1.74-4.63-4.63ZM862.58,541.42v70.59h139.15c11.28,0,16.78-4.34,16.78-16.49v-37.61c0-12.44-5.5-16.49-16.78-16.49h-139.15ZM1132.5,699.66v-193.25c0-2.89,1.74-4.63,4.63-4.63h36.16c2.89,0,4.34,1.74,4.34,4.63v193.25c0,2.89-1.45,4.63-4.34,4.63h-36.16c-2.89,0-4.63-1.74-4.63-4.63ZM1244.16,699.66v-193.25c0-2.89,1.74-4.63,4.63-4.63h227.1c2.89,0,4.34,1.45,4.34,4.34v30.95c0,2.89-1.45,4.34-4.34,4.34h-186.59v41.95h183.7c2.89,0,4.34,1.45,4.34,4.34v30.67c0,2.89-1.45,4.34-4.34,4.34h-183.7v41.95h188.04c2.89,0,4.34,1.45,4.34,4.34v30.95c0,2.89-1.45,4.34-4.34,4.34h-228.54c-2.89,0-4.63-1.74-4.63-4.63ZM1539.25,653.38c0-4.34,2.31-6.65,7.23-6.65h28.93c4.92,0,7.23,2.31,8.1,6.65,2.02,8.39,9.26,12.44,18.51,12.44h129.89c13.6,0,20.83-5.5,20.83-18.8,0-10.13-2.02-21.7-21.7-22.28l-129.89-6.94c-44.26-2.31-61.91-24.59-61.91-60.17,0-40.79,20.83-56.99,63.07-56.99h132.21c41.37,0,57.86,18.8,57.86,52.07,0,4.34-2.31,6.65-7.23,6.65h-28.93c-4.92,0-7.23-2.31-8.1-6.65-2.02-8.39-9.26-12.44-18.51-12.44h-125.26c-13.6,0-20.83,5.5-20.83,18.8,0,10.13,2.02,21.7,21.7,22.28l129.89,6.94c44.26,2.31,61.91,24.59,61.91,59.88,0,41.08-20.83,57.28-63.07,57.28h-136.84c-41.37,0-57.86-18.8-57.86-52.07Z"/>
        <path class="st0" d="M193.44,653.38c0-4.34,2.31-6.65,7.23-6.65h28.93c4.92,0,7.23,2.31,8.1,6.65,2.03,8.39,9.26,12.44,18.51,12.44h129.89c13.6,0,20.83-5.5,20.83-18.8,0-10.13-2.03-21.7-21.7-22.28l-129.89-6.94c-44.26-2.31-61.91-24.59-61.91-60.17,0-40.79,20.83-56.99,63.07-56.99h132.21c41.37,0,57.86,18.8,57.86,52.07,0,4.34-2.31,6.65-7.23,6.65h-28.93c-4.92,0-7.23-2.31-8.1-6.65-2.03-8.39-9.26-12.44-18.51-12.44h-125.26c-13.6,0-20.83,5.5-20.83,18.8,0,10.13,2.03,21.7,21.7,22.28l129.89,6.94c44.26,2.31,61.91,24.59,61.91,59.88,0,41.08-20.83,57.28-63.07,57.28h-136.84c-41.37,0-57.86-18.8-57.86-52.07ZM516.3,699.66v-193.25c0-2.89,1.74-4.63,4.63-4.63h227.1c2.89,0,4.34,1.45,4.34,4.34v30.95c0,2.89-1.45,4.34-4.34,4.34h-186.59v41.95h183.7c2.89,0,4.34,1.45,4.34,4.34v30.67c0,2.89-1.45,4.34-4.34,4.34h-183.7v41.95h188.04c2.89,0,4.34,1.45,4.34,4.34v30.95c0,2.89-1.45,4.34-4.34,4.34h-228.54c-2.89,0-4.63-1.74-4.63-4.63ZM817.45,699.66v-193.25c0-2.89,1.74-4.63,4.63-4.63h190.07c35.87,0,51.49,19.96,51.49,52.94v43.97c0,25.17-8.97,42.82-29.22,49.76l32.11,48.31c2.89,4.05-.58,7.52-5.5,7.52h-32.69c-3.76,0-5.79-1.74-8.1-4.92l-32.4-47.73h-125.26v48.02c0,2.89-1.45,4.63-4.34,4.63h-36.16c-2.89,0-4.63-1.74-4.63-4.63ZM862.58,541.42v70.59h139.15c11.28,0,16.78-4.34,16.78-16.49v-37.61c0-12.44-5.5-16.49-16.78-16.49h-139.15ZM1132.5,699.66v-193.25c0-2.89,1.74-4.63,4.63-4.63h36.16c2.89,0,4.34,1.74,4.34,4.63v193.25c0,2.89-1.45,4.63-4.34,4.63h-36.16c-2.89,0-4.63-1.74-4.63-4.63ZM1244.16,699.66v-193.25c0-2.89,1.74-4.63,4.63-4.63h227.1c2.89,0,4.34,1.45,4.34,4.34v30.95c0,2.89-1.45,4.34-4.34,4.34h-186.59v41.95h183.7c2.89,0,4.34,1.45,4.34,4.34v30.67c0,2.89-1.45,4.34-4.34,4.34h-183.7v41.95h188.04c2.89,0,4.34,1.45,4.34,4.34v30.95c0,2.89-1.45,4.34-4.34,4.34h-228.54c-2.89,0-4.63-1.74-4.63-4.63ZM1539.25,653.38c0-4.34,2.31-6.65,7.23-6.65h28.93c4.92,0,7.23,2.31,8.1,6.65,2.02,8.39,9.26,12.44,18.51,12.44h129.89c13.6,0,20.83-5.5,20.83-18.8,0-10.13-2.02-21.7-21.7-22.28l-129.89-6.94c-44.26-2.31-61.91-24.59-61.91-60.17,0-40.79,20.83-56.99,63.07-56.99h132.21c41.37,0,57.86,18.8,57.86,52.07,0,4.34-2.31,6.65-7.23,6.65h-28.93c-4.92,0-7.23-2.31-8.1-6.65-2.02-8.39-9.26-12.44-18.51-12.44h-125.26c-13.6,0-20.83,5.5-20.83,18.8,0,10.13,2.02,21.7,21.7,22.28l129.89,6.94c44.26,2.31,61.91,24.59,61.91,59.88,0,41.08-20.83,57.28-63.07,57.28h-136.84c-41.37,0-57.86-18.8-57.86-52.07Z"/>
        <g class="st1">
          <path class="st4" d="M1734.52,503.09c37.8,0,55.4,15.77,55.4,49.62,0,2.59-.8,4.2-4.78,4.2h-28.93c-3.51,0-5-1.22-5.69-4.68v-.05s-.02-.05-.02-.05c-2.2-9.1-9.81-14.32-20.9-14.32h-125.26c-15.45,0-23.28,7.15-23.28,21.26,0,11.18,2.73,24.09,24.05,24.73l129.87,6.94c40.09,2.1,59.58,20.88,59.58,57.43,0,38.43-18.13,54.82-60.61,54.82h-136.84c-37.8,0-55.4-15.77-55.4-49.62,0-2.59.8-4.2,4.78-4.2h28.93c3.51,0,5,1.22,5.69,4.68v.05s.02.05.02.05c2.2,9.1,9.81,14.32,20.9,14.32h129.89c15.45,0,23.28-7.15,23.28-21.26,0-11.18-2.73-24.09-24.05-24.73l-129.87-6.94c-20.71-1.08-36.16-6.76-45.91-16.86-9.2-9.53-13.67-22.9-13.67-40.86,0-19.5,4.86-33.22,14.85-41.94,9.71-8.47,24.68-12.59,45.76-12.59h132.21M388.72,503.09c37.8,0,55.4,15.77,55.4,49.62,0,2.59-.8,4.2-4.78,4.2h-28.93c-3.51,0-5-1.22-5.69-4.68v-.05s-.02-.05-.02-.05c-2.2-9.1-9.82-14.32-20.9-14.32h-125.26c-15.45,0-23.28,7.15-23.28,21.26,0,11.18,2.73,24.09,24.05,24.73l129.87,6.94c40.09,2.1,59.58,20.88,59.58,57.43,0,38.43-18.13,54.82-60.61,54.82h-136.84c-37.8,0-55.4-15.77-55.4-49.62,0-2.59.8-4.2,4.78-4.2h28.93c3.51,0,5,1.22,5.69,4.68v.05s.02.05.02.05c2.2,9.1,9.81,14.32,20.9,14.32h129.89c15.45,0,23.29-7.15,23.29-21.26,0-11.18-2.73-24.09-24.05-24.73l-129.87-6.94c-20.71-1.08-36.16-6.76-45.91-16.86-9.2-9.53-13.67-22.9-13.67-40.86,0-19.5,4.86-33.22,14.85-41.94,9.71-8.47,24.68-12.59,45.76-12.59h132.21M1475.89,504.24c1.53,0,1.88.35,1.88,1.88v30.95c0,1.53-.35,1.88-1.88,1.88h-189.05v46.86h186.16c1.53,0,1.88.35,1.88,1.88v30.67c0,1.53-.35,1.88-1.88,1.88h-186.16v46.86h190.5c1.53,0,1.88.35,1.88,1.88v30.95c0,1.53-.35,1.88-1.88,1.88h-228.54c-1.54,0-2.17-.63-2.17-2.17v-193.25c0-1.54.63-2.17,2.17-2.17h227.1M1173.29,504.24c1.07,0,1.88.16,1.88,2.17v193.25c0,2.01-.82,2.17-1.88,2.17h-36.16c-1.54,0-2.17-.63-2.17-2.17v-193.25c0-1.54.63-2.17,2.17-2.17h36.16M1012.15,504.24c16.68,0,29.26,4.48,37.39,13.31,7.73,8.39,11.65,20.9,11.65,37.17v43.97c0,25.21-9.27,41.17-27.56,47.44l-3.01,1.03,1.76,2.65,32.11,48.31.02.03.02.03c.58.81.73,1.49.46,2.02-.4.78-1.81,1.62-3.96,1.62h-32.69c-2.53,0-3.9-.87-6.09-3.88l-32.38-47.7-.73-1.08h-129.02v50.48c0,2.01-.82,2.17-1.88,2.17h-36.16c-1.54,0-2.17-.63-2.17-2.17v-193.25c0-1.54.63-2.17,2.17-2.17h190.07M860.13,614.46h141.61c13.12,0,19.23-6.02,19.23-18.95v-37.61c0-13.1-5.93-18.95-19.23-18.95h-141.61v75.5M748.02,504.24c1.53,0,1.88.35,1.88,1.88v30.95c0,1.53-.35,1.88-1.88,1.88h-189.05v46.86h186.16c1.53,0,1.88.35,1.88,1.88v30.67c0,1.53-.35,1.88-1.88,1.88h-186.16v46.86h190.5c1.53,0,1.88.35,1.88,1.88v30.95c0,1.53-.35,1.88-1.88,1.88h-228.54c-1.54,0-2.17-.63-2.17-2.17v-193.25c0-1.54.63-2.17,2.17-2.17h227.1M1734.52,500.63h-132.21c-42.24,0-63.07,16.2-63.07,56.99,0,35.58,17.65,57.86,61.91,60.17l129.89,6.94c19.67.58,21.7,12.15,21.7,22.28,0,13.31-7.23,18.8-20.83,18.8h-129.89c-9.26,0-16.49-4.05-18.51-12.44-.87-4.34-3.18-6.65-8.1-6.65h-28.93c-4.92,0-7.23,2.31-7.23,6.65,0,33.27,16.49,52.07,57.86,52.07h136.84c42.24,0,63.07-16.2,63.07-57.28,0-35.29-17.65-57.57-61.91-59.88l-129.89-6.94c-19.67-.58-21.7-12.15-21.7-22.28,0-13.31,7.23-18.8,20.83-18.8h125.26c9.26,0,16.49,4.05,18.51,12.44.87,4.34,3.18,6.65,8.1,6.65h28.93c4.92,0,7.23-2.31,7.23-6.65,0-33.27-16.49-52.07-57.86-52.07h0ZM388.72,500.63h-132.21c-42.24,0-63.07,16.2-63.07,56.99,0,35.58,17.65,57.86,61.91,60.17l129.89,6.94c19.67.58,21.7,12.15,21.7,22.28,0,13.31-7.23,18.8-20.83,18.8h-129.89c-9.26,0-16.49-4.05-18.51-12.44-.87-4.34-3.18-6.65-8.1-6.65h-28.93c-4.92,0-7.23,2.31-7.23,6.65,0,33.27,16.49,52.07,57.86,52.07h136.84c42.24,0,63.07-16.2,63.07-57.28,0-35.29-17.65-57.57-61.91-59.88l-129.89-6.94c-19.67-.58-21.7-12.15-21.7-22.28,0-13.31,7.23-18.8,20.83-18.8h125.26c9.26,0,16.49,4.05,18.51,12.44.87,4.34,3.18,6.65,8.1,6.65h28.93c4.92,0,7.23-2.31,7.23-6.65,0-33.27-16.49-52.07-57.86-52.07h0ZM1475.89,501.79h-227.1c-2.89,0-4.63,1.74-4.63,4.63v193.25c0,2.89,1.74,4.63,4.63,4.63h228.54c2.89,0,4.34-1.45,4.34-4.34v-30.95c0-2.89-1.45-4.34-4.34-4.34h-188.04v-41.95h183.7c2.89,0,4.34-1.45,4.34-4.34v-30.67c0-2.89-1.45-4.34-4.34-4.34h-183.7v-41.95h186.59c2.89,0,4.34-1.45,4.34-4.34v-30.95c0-2.89-1.45-4.34-4.34-4.34h0ZM1173.29,501.79h-36.16c-2.89,0-4.63,1.74-4.63,4.63v193.25c0,2.89,1.74,4.63,4.63,4.63h36.16c2.89,0,4.34-1.74,4.34-4.63v-193.25c0-2.89-1.45-4.63-4.34-4.63h0ZM1012.15,501.79h-190.07c-2.89,0-4.63,1.74-4.63,4.63v193.25c0,2.89,1.74,4.63,4.63,4.63h36.16c2.89,0,4.34-1.74,4.34-4.63v-48.02h125.26l32.4,47.73c2.31,3.18,4.34,4.92,8.1,4.92h32.69c4.92,0,8.39-3.47,5.5-7.52l-32.11-48.31c20.25-6.94,29.22-24.59,29.22-49.76v-43.97c0-32.98-15.62-52.94-51.49-52.94h0ZM862.58,612.01v-70.59h139.15c11.28,0,16.78,4.05,16.78,16.49v37.61c0,12.15-5.5,16.49-16.78,16.49h-139.15ZM748.02,501.79h-227.1c-2.89,0-4.63,1.74-4.63,4.63v193.25c0,2.89,1.74,4.63,4.63,4.63h228.54c2.89,0,4.34-1.45,4.34-4.34v-30.95c0-2.89-1.45-4.34-4.34-4.34h-188.04v-41.95h183.7c2.89,0,4.34-1.45,4.34-4.34v-30.67c0-2.89-1.45-4.34-4.34-4.34h-183.7v-41.95h186.6c2.89,0,4.34-1.45,4.34-4.34v-30.95c0-2.89-1.45-4.34-4.34-4.34h0Z"/>
        </g>
      </g>
    </g>
  </g>
</svg>